<svg xmlns="http://www.w3.org/2000/svg" width="1920" height="1080" version="1.1"><defs><linearGradient id="gr0" x1="0%" x2="100%" y1="0%" y2="100%"><stop offset="0%" stop-color="rgb(78,182,161)"/><stop offset="100%" stop-color="rgb(74,173,154)"/></linearGradient></defs><polygon id="triangle36" points="1099,23 1288,44 1919,8" style="fill: url(#gr0); stroke: rgb(0, 0, 0); stroke-width: 0;"/><defs><linearGradient id="gr1" x1="0%" x2="100%" y1="0%" y2="100%"><stop offset="0%" stop-color="rgb(76,178,158)"/><stop offset="100%" stop-color="rgb(64,150,134)"/></linearGradient></defs><polygon id="triangle36" points="1288,44 1839,94 1919,8" style="fill: url(#gr1); stroke: rgb(0, 0, 0); stroke-width: 0;"/><defs><linearGradient id="gr2" x1="0%" x2="100%" y1="0%" y2="100%"><stop offset="0%" stop-color="rgb(86,201,179)"/><stop offset="100%" stop-color="rgb(83,195,173)"/></linearGradient></defs><polygon id="triangle36" points="1222,1071 1456,997 1174,662" style="fill: url(#gr2); stroke: rgb(0, 0, 0); stroke-width: 0;"/><defs><linearGradient id="gr3" x1="0%" x2="100%" y1="0%" y2="100%"><stop offset="0%" stop-color="rgb(81,188,167)"/><stop offset="100%" stop-color="rgb(75,175,155)"/></linearGradient></defs><polygon id="triangle36" points="1456,997 1662,805 1174,662" style="fill: url(#gr3); stroke: rgb(0, 0, 0); stroke-width: 0;"/><defs><linearGradient id="gr4" x1="0%" x2="100%" y1="0%" y2="100%"><stop offset="0%" stop-color="rgb(77,180,160)"/><stop offset="100%" stop-color="rgb(68,160,142)"/></linearGradient></defs><polygon id="triangle36" points="648,479 936,231 866,586" style="fill: url(#gr4); stroke: rgb(0, 0, 0); stroke-width: 0;"/><defs><linearGradient id="gr5" x1="0%" x2="100%" y1="0%" y2="100%"><stop offset="0%" stop-color="rgb(82,191,169)"/><stop offset="100%" stop-color="rgb(74,174,154)"/></linearGradient></defs><polygon id="triangle36" points="1222,1071 1456,997 1918,1075" style="fill: url(#gr5); stroke: rgb(0, 0, 0); stroke-width: 0;"/><defs><linearGradient id="gr6" x1="0%" x2="100%" y1="0%" y2="100%"><stop offset="0%" stop-color="rgb(77,181,161)"/><stop offset="100%" stop-color="rgb(67,156,139)"/></linearGradient></defs><polygon id="triangle36" points="1456,997 1662,805 1918,1075" style="fill: url(#gr6); stroke: rgb(0, 0, 0); stroke-width: 0;"/><defs><linearGradient id="gr7" x1="0%" x2="100%" y1="0%" y2="100%"><stop offset="0%" stop-color="rgb(94,220,195)"/><stop offset="100%" stop-color="rgb(87,203,180)"/></linearGradient></defs><polygon id="triangle36" points="369,542 648,479 543,852" style="fill: url(#gr7); stroke: rgb(0, 0, 0); stroke-width: 0;"/><defs><linearGradient id="gr8" x1="0%" x2="100%" y1="0%" y2="100%"><stop offset="0%" stop-color="rgb(91,212,188)"/><stop offset="100%" stop-color="rgb(89,207,183)"/></linearGradient></defs><polygon id="triangle36" points="648,479 866,586 543,852" style="fill: url(#gr8); stroke: rgb(0, 0, 0); stroke-width: 0;"/><defs><linearGradient id="gr9" x1="0%" x2="100%" y1="0%" y2="100%"><stop offset="0%" stop-color="rgb(90,211,187)"/><stop offset="100%" stop-color="rgb(80,188,167)"/></linearGradient></defs><polygon id="triangle36" points="369,542 543,852 305,884" style="fill: url(#gr9); stroke: rgb(0, 0, 0); stroke-width: 0;"/><defs><linearGradient id="gr10" x1="0%" x2="100%" y1="0%" y2="100%"><stop offset="0%" stop-color="rgb(57,132,118)"/><stop offset="100%" stop-color="rgb(67,156,138)"/></linearGradient></defs><polygon id="triangle36" points="3,1077 1222,1071 486,969" style="fill: url(#gr10); stroke: rgb(0, 0, 0); stroke-width: 0;"/><defs><linearGradient id="gr11" x1="0%" x2="100%" y1="0%" y2="100%"><stop offset="0%" stop-color="rgb(60,140,125)"/><stop offset="100%" stop-color="rgb(65,153,136)"/></linearGradient></defs><polygon id="triangle36" points="3,1077 305,884 486,969" style="fill: url(#gr11); stroke: rgb(0, 0, 0); stroke-width: 0;"/><defs><linearGradient id="gr12" x1="0%" x2="100%" y1="0%" y2="100%"><stop offset="0%" stop-color="rgb(72,169,150)"/><stop offset="100%" stop-color="rgb(71,167,148)"/></linearGradient></defs><polygon id="triangle36" points="305,884 543,852 486,969" style="fill: url(#gr12); stroke: rgb(0, 0, 0); stroke-width: 0;"/><defs><linearGradient id="gr13" x1="0%" x2="100%" y1="0%" y2="100%"><stop offset="0%" stop-color="rgb(67,157,139)"/><stop offset="100%" stop-color="rgb(62,145,129)"/></linearGradient></defs><polygon id="triangle36" points="1174,662 1438,284 1565,493" style="fill: url(#gr13); stroke: rgb(0, 0, 0); stroke-width: 0;"/><defs><linearGradient id="gr14" x1="0%" x2="100%" y1="0%" y2="100%"><stop offset="0%" stop-color="rgb(71,166,147)"/><stop offset="100%" stop-color="rgb(67,155,138)"/></linearGradient></defs><polygon id="triangle36" points="1174,662 1662,805 1565,493" style="fill: url(#gr14); stroke: rgb(0, 0, 0); stroke-width: 0;"/><defs><linearGradient id="gr15" x1="0%" x2="100%" y1="0%" y2="100%"><stop offset="0%" stop-color="rgb(66,155,138)"/><stop offset="100%" stop-color="rgb(68,159,142)"/></linearGradient></defs><polygon id="triangle36" points="1438,284 1704,387 1565,493" style="fill: url(#gr15); stroke: rgb(0, 0, 0); stroke-width: 0;"/><defs><linearGradient id="gr16" x1="0%" x2="100%" y1="0%" y2="100%"><stop offset="0%" stop-color="rgb(85,198,176)"/><stop offset="100%" stop-color="rgb(84,197,175)"/></linearGradient></defs><polygon id="triangle36" points="1174,662 1222,1071 863,955" style="fill: url(#gr16); stroke: rgb(0, 0, 0); stroke-width: 0;"/><defs><linearGradient id="gr17" x1="0%" x2="100%" y1="0%" y2="100%"><stop offset="0%" stop-color="rgb(67,156,139)"/><stop offset="100%" stop-color="rgb(77,180,160)"/></linearGradient></defs><polygon id="triangle36" points="486,969 1222,1071 863,955" style="fill: url(#gr17); stroke: rgb(0, 0, 0); stroke-width: 0;"/><defs><linearGradient id="gr18" x1="0%" x2="100%" y1="0%" y2="100%"><stop offset="0%" stop-color="rgb(67,157,139)"/><stop offset="100%" stop-color="rgb(76,178,158)"/></linearGradient></defs><polygon id="triangle36" points="486,969 543,852 863,955" style="fill: url(#gr18); stroke: rgb(0, 0, 0); stroke-width: 0;"/><defs><linearGradient id="gr19" x1="0%" x2="100%" y1="0%" y2="100%"><stop offset="0%" stop-color="rgb(86,201,179)"/><stop offset="100%" stop-color="rgb(86,201,178)"/></linearGradient></defs><polygon id="triangle36" points="543,852 866,586 863,955" style="fill: url(#gr19); stroke: rgb(0, 0, 0); stroke-width: 0;"/><defs><linearGradient id="gr20" x1="0%" x2="100%" y1="0%" y2="100%"><stop offset="0%" stop-color="rgb(92,214,189)"/><stop offset="100%" stop-color="rgb(83,194,172)"/></linearGradient></defs><polygon id="triangle36" points="866,586 1174,662 863,955" style="fill: url(#gr20); stroke: rgb(0, 0, 0); stroke-width: 0;"/><defs><linearGradient id="gr21" x1="0%" x2="100%" y1="0%" y2="100%"><stop offset="0%" stop-color="rgb(77,180,160)"/><stop offset="100%" stop-color="rgb(71,166,148)"/></linearGradient></defs><polygon id="triangle36" points="1288,44 1438,284 1561,188" style="fill: url(#gr21); stroke: rgb(0, 0, 0); stroke-width: 0;"/><defs><linearGradient id="gr22" x1="0%" x2="100%" y1="0%" y2="100%"><stop offset="0%" stop-color="rgb(79,184,163)"/><stop offset="100%" stop-color="rgb(72,167,148)"/></linearGradient></defs><polygon id="triangle36" points="1288,44 1839,94 1561,188" style="fill: url(#gr22); stroke: rgb(0, 0, 0); stroke-width: 0;"/><defs><linearGradient id="gr23" x1="0%" x2="100%" y1="0%" y2="100%"><stop offset="0%" stop-color="rgb(68,159,141)"/><stop offset="100%" stop-color="rgb(73,170,151)"/></linearGradient></defs><polygon id="triangle36" points="1438,284 1704,387 1561,188" style="fill: url(#gr23); stroke: rgb(0, 0, 0); stroke-width: 0;"/><defs><linearGradient id="gr24" x1="0%" x2="100%" y1="0%" y2="100%"><stop offset="0%" stop-color="rgb(73,170,151)"/><stop offset="100%" stop-color="rgb(70,163,145)"/></linearGradient></defs><polygon id="triangle36" points="1704,387 1839,94 1561,188" style="fill: url(#gr24); stroke: rgb(0, 0, 0); stroke-width: 0;"/><defs><linearGradient id="gr25" x1="0%" x2="100%" y1="0%" y2="100%"><stop offset="0%" stop-color="rgb(69,162,144)"/><stop offset="100%" stop-color="rgb(65,152,136)"/></linearGradient></defs><polygon id="triangle36" points="1099,23 1288,44 1082,262" style="fill: url(#gr25); stroke: rgb(0, 0, 0); stroke-width: 0;"/><defs><linearGradient id="gr26" x1="0%" x2="100%" y1="0%" y2="100%"><stop offset="0%" stop-color="rgb(64,151,134)"/><stop offset="100%" stop-color="rgb(56,130,116)"/></linearGradient></defs><polygon id="triangle36" points="1174,662 1438,284 1082,262" style="fill: url(#gr26); stroke: rgb(0, 0, 0); stroke-width: 0;"/><defs><linearGradient id="gr27" x1="0%" x2="100%" y1="0%" y2="100%"><stop offset="0%" stop-color="rgb(72,168,150)"/><stop offset="100%" stop-color="rgb(60,139,124)"/></linearGradient></defs><polygon id="triangle36" points="1288,44 1438,284 1082,262" style="fill: url(#gr27); stroke: rgb(0, 0, 0); stroke-width: 0;"/><defs><linearGradient id="gr28" x1="0%" x2="100%" y1="0%" y2="100%"><stop offset="0%" stop-color="rgb(77,181,160)"/><stop offset="100%" stop-color="rgb(64,150,134)"/></linearGradient></defs><polygon id="triangle36" points="866,586 1174,662 1082,262" style="fill: url(#gr28); stroke: rgb(0, 0, 0); stroke-width: 0;"/><defs><linearGradient id="gr29" x1="0%" x2="100%" y1="0%" y2="100%"><stop offset="0%" stop-color="rgb(71,166,147)"/><stop offset="100%" stop-color="rgb(50,117,105)"/></linearGradient></defs><polygon id="triangle36" points="866,586 936,231 1082,262" style="fill: url(#gr29); stroke: rgb(0, 0, 0); stroke-width: 0;"/><defs><linearGradient id="gr30" x1="0%" x2="100%" y1="0%" y2="100%"><stop offset="0%" stop-color="rgb(49,116,104)"/><stop offset="100%" stop-color="rgb(58,136,121)"/></linearGradient></defs><polygon id="triangle36" points="936,231 1099,23 1082,262" style="fill: url(#gr30); stroke: rgb(0, 0, 0); stroke-width: 0;"/><defs><linearGradient id="gr31" x1="0%" x2="100%" y1="0%" y2="100%"><stop offset="0%" stop-color="rgb(68,159,141)"/><stop offset="100%" stop-color="rgb(80,186,165)"/></linearGradient></defs><polygon id="triangle36" points="3,1077 305,884 191,523" style="fill: url(#gr31); stroke: rgb(0, 0, 0); stroke-width: 0;"/><defs><linearGradient id="gr32" x1="0%" x2="100%" y1="0%" y2="100%"><stop offset="0%" stop-color="rgb(73,170,151)"/><stop offset="100%" stop-color="rgb(84,196,175)"/></linearGradient></defs><polygon id="triangle36" points="3,1077 61,389 191,523" style="fill: url(#gr32); stroke: rgb(0, 0, 0); stroke-width: 0;"/><defs><linearGradient id="gr33" x1="0%" x2="100%" y1="0%" y2="100%"><stop offset="0%" stop-color="rgb(83,194,172)"/><stop offset="100%" stop-color="rgb(91,213,189)"/></linearGradient></defs><polygon id="triangle36" points="305,884 369,542 191,523" style="fill: url(#gr33); stroke: rgb(0, 0, 0); stroke-width: 0;"/><defs><linearGradient id="gr34" x1="0%" x2="100%" y1="0%" y2="100%"><stop offset="0%" stop-color="rgb(71,166,147)"/><stop offset="100%" stop-color="rgb(73,170,151)"/></linearGradient></defs><polygon id="triangle36" points="3,1077 61,389 3,0" style="fill: url(#gr34); stroke: rgb(0, 0, 0); stroke-width: 0;"/><defs><linearGradient id="gr35" x1="0%" x2="100%" y1="0%" y2="100%"><stop offset="0%" stop-color="rgb(85,197,175)"/><stop offset="100%" stop-color="rgb(75,175,156)"/></linearGradient></defs><polygon id="triangle36" points="191,523 369,542 464,217" style="fill: url(#gr35); stroke: rgb(0, 0, 0); stroke-width: 0;"/><defs><linearGradient id="gr36" x1="0%" x2="100%" y1="0%" y2="100%"><stop offset="0%" stop-color="rgb(85,198,176)"/><stop offset="100%" stop-color="rgb(72,167,149)"/></linearGradient></defs><polygon id="triangle36" points="369,542 648,479 464,217" style="fill: url(#gr36); stroke: rgb(0, 0, 0); stroke-width: 0;"/><defs><linearGradient id="gr37" x1="0%" x2="100%" y1="0%" y2="100%"><stop offset="0%" stop-color="rgb(76,177,157)"/><stop offset="100%" stop-color="rgb(72,168,150)"/></linearGradient></defs><polygon id="triangle36" points="61,389 191,523 464,217" style="fill: url(#gr37); stroke: rgb(0, 0, 0); stroke-width: 0;"/><defs><linearGradient id="gr38" x1="0%" x2="100%" y1="0%" y2="100%"><stop offset="0%" stop-color="rgb(71,167,148)"/><stop offset="100%" stop-color="rgb(52,124,110)"/></linearGradient></defs><polygon id="triangle36" points="648,479 936,231 464,217" style="fill: url(#gr38); stroke: rgb(0, 0, 0); stroke-width: 0;"/><defs><linearGradient id="gr39" x1="0%" x2="100%" y1="0%" y2="100%"><stop offset="0%" stop-color="rgb(53,125,111)"/><stop offset="100%" stop-color="rgb(56,131,117)"/></linearGradient></defs><polygon id="triangle36" points="3,0 1099,23 418,85" style="fill: url(#gr39); stroke: rgb(0, 0, 0); stroke-width: 0;"/><defs><linearGradient id="gr40" x1="0%" x2="100%" y1="0%" y2="100%"><stop offset="0%" stop-color="rgb(57,132,118)"/><stop offset="100%" stop-color="rgb(60,140,124)"/></linearGradient></defs><polygon id="triangle36" points="3,0 61,389 418,85" style="fill: url(#gr40); stroke: rgb(0, 0, 0); stroke-width: 0;"/><defs><linearGradient id="gr41" x1="0%" x2="100%" y1="0%" y2="100%"><stop offset="0%" stop-color="rgb(50,117,105)"/><stop offset="100%" stop-color="rgb(47,111,99)"/></linearGradient></defs><polygon id="triangle36" points="464,217 936,231 418,85" style="fill: url(#gr41); stroke: rgb(0, 0, 0); stroke-width: 0;"/><defs><linearGradient id="gr42" x1="0%" x2="100%" y1="0%" y2="100%"><stop offset="0%" stop-color="rgb(67,156,139)"/><stop offset="100%" stop-color="rgb(52,122,109)"/></linearGradient></defs><polygon id="triangle36" points="61,389 464,217 418,85" style="fill: url(#gr42); stroke: rgb(0, 0, 0); stroke-width: 0;"/><defs><linearGradient id="gr43" x1="0%" x2="100%" y1="0%" y2="100%"><stop offset="0%" stop-color="rgb(47,110,99)"/><stop offset="100%" stop-color="rgb(56,130,116)"/></linearGradient></defs><polygon id="triangle36" points="936,231 1099,23 418,85" style="fill: url(#gr43); stroke: rgb(0, 0, 0); stroke-width: 0;"/><defs><linearGradient id="gr44" x1="0%" x2="100%" y1="0%" y2="100%"><stop offset="0%" stop-color="rgb(71,166,147)"/><stop offset="100%" stop-color="rgb(70,164,145)"/></linearGradient></defs><polygon id="triangle36" points="1662,805 1918,1075 1817,548" style="fill: url(#gr44); stroke: rgb(0, 0, 0); stroke-width: 0;"/><defs><linearGradient id="gr45" x1="0%" x2="100%" y1="0%" y2="100%"><stop offset="0%" stop-color="rgb(74,172,153)"/><stop offset="100%" stop-color="rgb(72,168,150)"/></linearGradient></defs><polygon id="triangle36" points="1704,387 1839,94 1817,548" style="fill: url(#gr45); stroke: rgb(0, 0, 0); stroke-width: 0;"/><defs><linearGradient id="gr46" x1="0%" x2="100%" y1="0%" y2="100%"><stop offset="0%" stop-color="rgb(65,151,135)"/><stop offset="100%" stop-color="rgb(68,159,142)"/></linearGradient></defs><polygon id="triangle36" points="1839,94 1919,8 1817,548" style="fill: url(#gr46); stroke: rgb(0, 0, 0); stroke-width: 0;"/><defs><linearGradient id="gr47" x1="0%" x2="100%" y1="0%" y2="100%"><stop offset="0%" stop-color="rgb(71,166,147)"/><stop offset="100%" stop-color="rgb(74,172,153)"/></linearGradient></defs><polygon id="triangle36" points="1918,1075 1919,8 1817,548" style="fill: url(#gr47); stroke: rgb(0, 0, 0); stroke-width: 0;"/><defs><linearGradient id="gr48" x1="0%" x2="100%" y1="0%" y2="100%"><stop offset="0%" stop-color="rgb(67,155,139)"/><stop offset="100%" stop-color="rgb(70,163,145)"/></linearGradient></defs><polygon id="triangle36" points="1565,493 1662,805 1682,638" style="fill: url(#gr48); stroke: rgb(0, 0, 0); stroke-width: 0;"/><defs><linearGradient id="gr49" x1="0%" x2="100%" y1="0%" y2="100%"><stop offset="0%" stop-color="rgb(67,157,140)"/><stop offset="100%" stop-color="rgb(71,166,148)"/></linearGradient></defs><polygon id="triangle36" points="1565,493 1704,387 1682,638" style="fill: url(#gr49); stroke: rgb(0, 0, 0); stroke-width: 0;"/><defs><linearGradient id="gr50" x1="0%" x2="100%" y1="0%" y2="100%"><stop offset="0%" stop-color="rgb(72,167,148)"/><stop offset="100%" stop-color="rgb(74,174,154)"/></linearGradient></defs><polygon id="triangle36" points="1662,805 1817,548 1682,638" style="fill: url(#gr50); stroke: rgb(0, 0, 0); stroke-width: 0;"/><defs><linearGradient id="gr51" x1="0%" x2="100%" y1="0%" y2="100%"><stop offset="0%" stop-color="rgb(74,173,153)"/><stop offset="100%" stop-color="rgb(75,175,155)"/></linearGradient></defs><polygon id="triangle36" points="1704,387 1817,548 1682,638" style="fill: url(#gr51); stroke: rgb(0, 0, 0); stroke-width: 0;"/></svg>